<svg width="28" height="28" viewBox="0 0 28 28" fill="none" xmlns="http://www.w3.org/2000/svg">
<path d="M19.6612 6.07117H16.2508C15.4012 6.07686 14.5946 5.69395 14.0563 5.02936L12.9332 3.45621C12.4038 2.7858 11.5972 2.40108 10.7489 2.4144H8.33795C4.01059 2.4144 2.41359 4.98768 2.41359 9.36331V14.0932C2.4082 14.6133 25.5841 14.6127 25.5856 14.0932V12.718C25.6062 8.34233 24.0504 6.07117 19.6612 6.07117Z" fill="#FF96AB"/>
<path d="M25.1544 9.11446C24.9655 8.57254 24.6771 8.07051 24.3038 7.63408C24.1865 7.49626 24.0581 7.36816 23.92 7.25105C22.7208 6.3079 21.2099 5.84963 19.6877 5.96736H8.27696C5.55913 5.96736 3.89939 6.84731 3.09027 8.57614C2.81713 9.13631 2.62503 9.73234 2.51973 10.3464C2.51973 10.5741 2.44712 10.8019 2.416 11.04C2.36051 11.5488 2.33281 12.0603 2.33301 12.5721V18.7007C2.33278 19.2174 2.37441 19.7332 2.45749 20.2432C2.58815 21.1444 2.89855 22.0104 3.37035 22.7898C3.58527 23.166 3.84664 23.5138 4.14835 23.8251C5.53506 25.0933 7.37358 25.7534 9.25205 25.6574H18.7333C20.6088 25.7541 22.4444 25.0937 23.8267 23.8251C24.132 23.5144 24.3969 23.1666 24.615 22.7898C25.0896 22.0098 25.4068 21.1447 25.5486 20.2432C25.6231 19.7323 25.6612 19.2169 25.6627 18.7007V12.5721C25.6982 11.3987 25.5261 10.2283 25.1544 9.11446Z" fill="#FF2350"/>
<path d="M18.3832 15.6375C18.0054 15.2638 17.3974 15.2612 17.0197 15.6401L14.964 17.7052V11.4634C14.964 10.9319 14.5319 10.5 14.0002 10.5C13.4685 10.5 13.0365 10.9319 13.0365 11.4634V17.7052L10.9795 15.6401C10.6031 15.2612 9.99375 15.2638 9.6173 15.6375C9.23955 16.0125 9.23955 16.6216 9.61342 16.9991L13.3172 20.7181H13.3185C13.4064 20.806 13.5112 20.8772 13.629 20.9263C13.7454 20.9741 13.8722 21 14.0002 21C14.1296 21 14.2564 20.9741 14.3728 20.925C14.488 20.8772 14.5927 20.806 14.6807 20.7194L14.6833 20.7181L18.3858 16.9991C18.7609 16.6216 18.7609 16.0125 18.3832 15.6375Z" fill="white"/>
</svg>
