<svg width="18" height="18" viewBox="0 0 18 18" fill="none" xmlns="http://www.w3.org/2000/svg">
<path d="M12.6417 3.90178H10.4493C9.90317 3.90544 9.38464 3.65928 9.03853 3.23204L8.31657 2.22074C7.97626 1.78975 7.45774 1.54244 6.91239 1.551H5.36248C2.58061 1.551 1.55396 3.20525 1.55396 6.01816V9.05877C1.5505 9.39316 16.4493 9.39273 16.4502 9.05877V8.17472C16.4635 5.36181 15.4633 3.90178 12.6417 3.90178Z" fill="#FF2350"/>
<path d="M16.1709 5.85902C16.0495 5.51064 15.864 5.18791 15.6241 4.90735C15.5487 4.81874 15.4661 4.73639 15.3774 4.66111C14.6065 4.0548 13.6352 3.7602 12.6566 3.83588H5.32111C3.57394 3.83588 2.50696 4.40156 1.98681 5.51295C1.81122 5.87307 1.68773 6.25622 1.62004 6.65097C1.62004 6.79738 1.57336 6.94379 1.55335 7.09685C1.51768 7.42396 1.49987 7.75276 1.5 8.0818V12.0216C1.49985 12.3537 1.52662 12.6853 1.58002 13.0132C1.66402 13.5926 1.86356 14.1492 2.16686 14.6503C2.30502 14.8922 2.47305 15.1157 2.66701 15.3158C3.55846 16.1311 4.74037 16.5555 5.94796 16.4938H12.0431C13.2487 16.5559 14.4287 16.1314 15.3173 15.3158C15.5136 15.1161 15.6839 14.8925 15.8242 14.6503C16.1293 14.1489 16.3331 13.5927 16.4243 13.0132C16.4722 12.6848 16.4967 12.3534 16.4977 12.0216V8.0818C16.5205 7.32747 16.4099 6.57503 16.1709 5.85902Z" fill="white"/>
<path d="M11.8177 10.0527C11.5748 9.81244 11.1839 9.81078 10.9411 10.0543L9.61963 11.3819V7.3693C9.61963 7.02765 9.34186 6.75 9.00005 6.75C8.65825 6.75 8.38048 7.02765 8.38048 7.3693V11.3819L7.05816 10.0543C6.81616 9.81078 6.42445 9.81244 6.18244 10.0527C5.9396 10.2938 5.9396 10.6853 6.17995 10.928L8.56094 13.3188H8.56177C8.61833 13.3753 8.68569 13.421 8.76137 13.4526C8.83622 13.4834 8.91772 13.5 9.00005 13.5C9.08322 13.5 9.16472 13.4834 9.23956 13.4518C9.31358 13.421 9.38094 13.3753 9.4375 13.3196L9.43916 13.3188L11.8193 10.928C12.0605 10.6853 12.0605 10.2938 11.8177 10.0527Z" fill="#FF2350"/>
</svg>
